HIERARCHY
ROOT Hips
{
	OFFSET 0.000000 93.594000 0.000000
	CHANNELS 6 Xposition Yposition Zposition Yrotation Xrotation Zrotation
	JOINT RightUpLeg
	{
		OFFSET -9.500000 -1.594000 0.000000
		CHANNELS 3 Yrotation Xrotation Zrotation
		JOINT RightLeg
		{
			OFFSET 0.000000 -42.000000 0.000000
			CHANNELS 3 Yrotation Xrotation Zrotation
			JOINT RightFoot
			{
				OFFSET 0.000000 -42.000000 0.000000
				CHANNELS 3 Yrotation Xrotation Zrotation
				End Site
				{
					OFFSET 0.000000 -8.000000 17.500000
				}
			}
		}
	}
	JOINT LeftUpLeg
	{
		OFFSET 9.500000 -1.594000 0.000000
		CHANNELS 3 Yrotation Xrotation Zrotation
		JOINT LeftLeg
		{
			OFFSET 0.000000 -42.000000 0.000000
			CHANNELS 3 Yrotation Xrotation Zrotation
			JOINT LeftFoot
			{
				OFFSET 0.000000 -42.000000 0.000000
				CHANNELS 3 Yrotation Xrotation Zrotation
				End Site
				{
					OFFSET 0.000000 -8.000000 17.500000
				}
			}
		}
	}
	JOINT Spine
	{
		OFFSET 0.000000 14.348000 0.000000
		CHANNELS 3 Yrotation Xrotation Zrotation
		JOINT Spine1
		{
			OFFSET 0.000000 9.746000 0.000000
			CHANNELS 3 Yrotation Xrotation Zrotation
			JOINT Spine2
			{
				OFFSET 0.000000 10.149000 0.000000
				CHANNELS 3 Yrotation Xrotation Zrotation
				JOINT Spine3
				{
					OFFSET 0.000000 9.746000 0.000000
					CHANNELS 3 Yrotation Xrotation Zrotation
					JOINT Neck
					{
						OFFSET 0.000000 10.417000 0.000000
						CHANNELS 3 Yrotation Xrotation Zrotation
						JOINT Head
						{
							OFFSET 0.000000 9.000000 0.000000
							CHANNELS 3 Yrotation Xrotation Zrotation
							End Site
							{
								OFFSET 0.000000 16.000000 0.000000
							}
						}
					}
					JOINT RightShoulder
					{
						OFFSET -3.200000 6.945000 0.000000
						CHANNELS 3 Yrotation Xrotation Zrotation
						JOINT RightArm
						{
							OFFSET -12.800000 0.000000 0.000000
							CHANNELS 3 Yrotation Xrotation Zrotation
							JOINT RightForeArm
							{
								OFFSET -27.000000 0.000000 0.000000
								CHANNELS 3 Yrotation Xrotation Zrotation
								JOINT RightHand
								{
									OFFSET -26.000000 0.000000 0.000000
									CHANNELS 3 Yrotation Xrotation Zrotation
									End Site
									{
										OFFSET -3.479000 0.532000 0.778000
									}
								}
							}
						}
					}
					JOINT LeftShoulder
					{
						OFFSET 3.200000 6.945000 0.000000
						CHANNELS 3 Yrotation Xrotation Zrotation
						JOINT LeftArm
						{
							OFFSET 12.800000 0.000000 0.000000
							CHANNELS 3 Yrotation Xrotation Zrotation
							JOINT LeftForeArm
							{
								OFFSET 27.000000 0.000000 0.000000
								CHANNELS 3 Yrotation Xrotation Zrotation
								JOINT LeftHand
								{
									OFFSET 26.000000 0.000000 0.000000
									CHANNELS 3 Yrotation Xrotation Zrotation
									End Site
									{
										OFFSET 3.479000 0.532000 0.778000
									}
								}
							}
						}
					}
				}
			}
		}
	}
}
MOTION
Frames: 31
Frame Time: 0.010000
18.58 89.5 29.34 -146.7 3.91 0.75 5.42 -31.57 -7.16 0.0 15.53 0.0 22.19 9.78 15.75 -0.17 -2.97 -3.54 -0.0 40.89 0.0 -0.69 -12.81 2.79 -11.31 6.34 0.01 -2.84 1.56 0.12 -4.68 2.57 0.16 1.21 0.05 -0.09 1.22 0.06 -0.09 22.51 1.69 -1.29 -6.15 -6.84 -3.89 -2.3 29.8 60.26 11.28 32.9 12.68 9.75 -4.43 2.09 -8.84 -3.11 -5.9 -10.15 -30.61 -40.72 -46.4 -13.48 -1.11 -18.2 -30.25 70.65
18.49 89.46 29.61 -147.33 3.87 0.72 5.42 -31.25 -7.03 -0.0 14.52 -0.0 23.06 10.78 15.74 0.22 -3.08 -3.74 -0.0 41.13 -0.0 -0.54 -12.85 2.72 -10.23 7.25 -0.9 -2.57 1.78 -0.1 -4.26 2.9 -0.21 1.16 0.04 -0.05 1.16 0.04 -0.05 21.38 1.08 -0.74 -4.4 -6.39 -4.83 -3.88 28.09 56.21 10.81 31.76 12.49 9.62 -5.06 2.83 -7.5 -4.05 -6.69 -7.96 -28.15 -42.87 -44.75 -12.67 -1.46 -22.76 -34.53 71.95
18.39 89.45 29.8 -147.29 3.76 0.61 5.3 -30.85 -7.0 -0.0 13.87 -0.0 23.57 11.32 16.04 0.56 -3.03 -3.67 -0.0 41.23 -0.0 -0.55 -12.99 2.76 -9.51 8.03 -1.63 -2.4 1.97 -0.28 -4.0 3.18 -0.51 1.12 0.03 0.01 1.13 0.03 0.01 20.71 0.49 0.24 -2.87 -6.1 -5.79 -5.67 25.87 52.24 11.04 30.48 13.31 8.74 -5.78 1.88 -6.68 -4.92 -7.04 -6.51 -23.78 -47.16 -44.37 -10.81 -1.45 -28.18 -38.98 72.66
18.36 89.48 29.88 -147.48 3.51 0.41 5.15 -30.34 -6.78 0.0 13.38 0.0 24.08 10.94 16.49 0.77 -2.81 -3.5 0.0 41.27 0.0 -0.52 -12.92 2.82 -9.28 8.34 -2.03 -2.34 2.04 -0.38 -3.92 3.29 -0.67 1.12 0.03 0.04 1.13 0.03 0.04 20.66 0.33 0.78 -1.88 -5.71 -6.45 -6.82 24.19 48.88 9.94 28.85 11.71 8.78 -5.86 3.32 -6.83 -4.99 -6.91 -5.87 -22.1 -49.04 -42.76 -9.77 -2.09 -31.86 -41.51 73.38
18.33 89.57 29.81 -147.51 3.14 0.36 4.72 -30.21 -6.67 0.0 14.16 0.0 24.39 9.01 17.01 0.88 -2.18 -3.39 -0.0 40.85 0.0 -0.55 -12.74 2.91 -9.29 8.27 -2.19 -2.35 2.02 -0.42 -3.92 3.25 -0.74 1.13 0.04 0.05 1.14 0.04 0.05 20.96 0.51 0.95 -1.05 -5.47 -6.94 -7.39 23.77 48.54 7.87 26.32 11.1 8.87 -6.31 3.78 -7.98 -4.25 -5.98 -6.63 -23.38 -48.69 -42.19 -9.93 -2.46 -32.02 -40.47 73.75
18.43 89.64 29.69 -146.63 3.22 0.2 4.6 -30.14 -6.68 -0.0 14.38 0.0 23.87 8.54 16.78 0.91 -2.15 -2.84 -0.0 40.6 -0.0 -0.97 -12.78 3.12 -9.45 7.68 -1.69 -2.38 1.88 -0.3 -3.97 3.03 -0.54 1.15 0.05 0.04 1.16 0.05 0.04 21.33 0.66 0.84 -2.23 -6.26 -5.82 -5.92 26.67 52.02 4.79 25.07 10.15 9.34 -6.59 2.37 -9.39 -3.36 -5.04 -10.23 -26.52 -46.13 -43.5 -10.92 -2.35 -28.23 -35.82 73.57
18.41 89.67 29.66 -146.11 3.22 0.41 4.48 -30.34 -6.97 -0.0 15.08 -0.0 23.66 8.21 16.27 0.36 -2.0 -3.0 0.0 40.28 0.0 -0.96 -12.76 3.29 -10.35 7.16 -1.26 -2.6 1.75 -0.19 -4.32 2.84 -0.36 1.18 0.05 0.02 1.19 0.05 0.02 21.92 0.91 0.46 -4.84 -6.88 -4.27 -4.93 28.84 55.41 8.74 29.51 12.01 9.84 -5.23 3.37 -10.39 -2.69 -4.43 -14.21 -29.22 -41.27 -48.41 -12.48 -1.11 -20.83 -28.81 72.4
18.68 89.65 29.68 -146.6 3.26 0.44 4.19 -30.3 -6.48 0.0 14.45 0.0 24.26 9.27 15.42 0.19 -2.28 -3.0 0.0 40.6 -0.0 -0.9 -12.76 3.14 -10.59 6.48 -0.91 -2.66 1.59 -0.11 -4.41 2.58 -0.22 1.19 0.09 -0.01 1.2 0.09 -0.01 22.09 1.68 0.17 -5.8 -6.92 -3.57 -3.42 28.9 59.07 14.16 30.52 13.53 10.16 -4.18 1.8 -11.51 -2.55 -3.73 -19.07 -32.54 -36.36 -53.57 -13.95 1.21 -12.81 -19.42 70.35
18.86 89.69 29.65 -146.14 3.35 0.32 3.6 -30.34 -6.29 0.0 14.44 -0.0 24.58 8.79 16.02 0.1 -2.47 -2.63 0.0 40.65 0.0 -1.02 -12.81 3.01 -10.37 6.07 -0.58 -2.6 1.49 -0.04 -4.3 2.43 -0.1 1.21 0.1 -0.05 1.23 0.1 -0.05 22.56 2.21 -0.58 -4.95 -7.22 -2.87 -1.16 27.21 60.73 16.31 28.79 13.78 11.68 -3.34 -0.42 -12.83 -2.78 -2.94 -22.81 -34.72 -33.56 -60.14 -13.33 2.92 -5.63 -11.59 67.76
18.81 89.68 29.61 -146.64 3.4 0.18 3.77 -30.3 -6.11 0.0 14.25 0.0 25.27 8.82 16.42 0.53 -2.46 -2.54 0.0 40.7 0.0 -0.79 -12.72 2.87 -9.77 5.65 -0.31 -2.45 1.39 0.02 -4.05 2.28 -0.01 1.31 0.1 -0.07 1.32 0.1 -0.07 24.41 2.5 -0.84 -3.35 -6.58 -2.81 -0.04 23.75 58.34 21.24 12.69 16.06 13.77 -5.37 -0.13 -11.99 -4.67 -2.71 -24.38 -32.31 -33.2 -65.83 -12.76 3.17 -1.22 -8.37 66.07
18.53 89.66 29.76 -146.72 3.4 -0.1 3.62 -30.15 -6.01 -0.0 14.05 -0.0 25.72 8.65 16.8 0.8 -2.55 -2.42 0.0 40.97 0.0 -0.73 -12.72 2.94 -9.48 5.38 -0.16 -2.38 1.32 0.05 -3.93 2.18 0.04 1.27 0.12 -0.03 1.28 0.12 -0.03 23.64 2.52 -0.08 -2.22 -6.23 -3.36 -0.17 19.41 53.87 20.92 2.74 14.34 13.25 -4.51 3.01 -12.78 -5.5 -3.05 -26.83 -32.12 -32.83 -64.97 -13.18 2.77 -1.68 -7.36 66.4
18.22 89.64 29.89 -146.27 3.35 -0.17 3.71 -30.07 -6.3 -0.0 14.31 0.0 25.6 8.54 16.65 0.82 -2.51 -2.4 0.0 41.03 0.0 -0.84 -12.79 2.99 -9.78 5.13 -0.15 -2.45 1.26 0.05 -4.06 2.07 0.05 1.25 0.13 -0.02 1.26 0.13 -0.02 23.33 2.57 0.07 -0.66 -5.04 -5.07 -2.65 16.27 49.77 15.34 1.79 11.5 13.19 -5.79 1.97 -14.08 -5.99 -2.92 -30.27 -30.96 -32.11 -60.32 -13.05 1.33 -2.72 -10.61 66.93
18.01 89.63 29.93 -146.56 3.41 -0.3 3.65 -30.07 -6.22 0.0 14.22 -0.0 26.09 8.56 16.74 0.75 -2.48 -2.47 -0.0 41.02 0.0 -0.71 -12.79 2.87 -10.25 4.92 -0.09 -2.57 1.21 0.06 -4.24 1.99 0.07 1.27 0.12 -0.02 1.28 0.13 -0.02 23.66 2.53 0.06 -0.26 -4.04 -6.28 -5.56 15.36 46.09 10.75 3.62 11.29 13.8 -6.96 2.4 -14.94 -6.13 -3.07 -32.32 -28.5 -32.03 -57.67 -12.15 0.28 -3.95 -13.81 68.04
17.97 89.62 29.97 -146.77 3.54 -0.39 3.58 -30.02 -6.03 -0.0 13.81 0.0 26.39 9.0 16.44 0.62 -2.55 -2.45 -0.0 40.96 0.0 -0.71 -12.88 2.8 -10.62 4.95 -0.15 -2.67 1.22 0.05 -4.4 2.0 0.05 1.27 0.12 -0.02 1.28 0.12 -0.02 23.69 2.51 0.05 -1.83 -4.42 -5.93 -6.64 18.53 47.5 10.15 8.13 10.58 11.41 -6.35 3.52 -15.64 -5.73 -3.33 -32.85 -27.76 -31.7 -55.28 -11.06 -0.46 -4.63 -17.34 66.2
18.14 89.6 30.03 -146.89 3.64 -0.35 3.57 -30.12 -5.92 -0.0 13.6 -0.0 26.59 9.49 16.1 0.38 -2.8 -2.47 -0.0 41.14 0.0 -0.68 -12.97 2.81 -11.42 5.31 -0.25 -2.87 1.31 0.04 -4.73 2.14 0.03 1.32 0.12 -0.05 1.33 0.12 -0.05 24.66 2.69 -0.41 -3.75 -6.14 -4.37 -6.8 24.05 51.61 11.21 15.92 12.53 12.03 -6.04 2.4 -14.46 -4.92 -3.23 -31.54 -28.58 -31.2 -54.37 -11.14 0.24 -5.69 -18.66 66.8
18.39 89.56 29.85 -147.34 3.41 -0.32 3.31 -30.33 -5.53 -0.0 14.28 -0.0 27.23 9.32 15.98 0.2 -2.62 -2.47 0.0 41.35 -0.0 -0.45 -12.88 2.81 -11.16 5.44 -0.33 -2.8 1.34 0.02 -4.62 2.19 -0.0 1.3 0.17 -0.04 1.31 0.17 -0.04 24.31 3.47 -0.02 -6.23 -6.64 -2.99 -6.24 28.02 56.41 13.38 21.92 13.7 11.83 -4.86 2.31 -12.85 -4.25 -3.13 -26.33 -28.61 -31.94 -55.67 -11.52 0.72 -6.29 -20.5 66.82
18.8 89.56 29.61 -147.39 3.48 -0.23 3.59 -30.7 -5.4 -0.0 14.94 0.0 27.15 9.07 15.53 0.3 -2.71 -2.23 -0.0 41.38 0.0 -0.36 -12.83 2.72 -10.68 5.71 -0.5 -2.68 1.4 -0.02 -4.43 2.29 -0.08 1.24 0.17 -0.01 1.25 0.17 -0.01 23.12 3.33 0.39 -7.09 -7.08 -2.19 -3.76 29.04 62.37 16.92 25.48 14.86 11.29 -3.38 2.16 -10.49 -3.63 -3.24 -19.39 -29.99 -32.88 -58.08 -11.71 -1.4 -6.27 -22.83 70.27
18.98 89.6 29.48 -147.16 3.6 -0.1 3.13 -31.08 -5.38 0.0 15.61 -0.0 27.62 8.16 15.83 0.23 -2.73 -2.16 -0.0 41.15 -0.0 -0.35 -12.71 2.62 -9.65 5.74 -0.65 -2.42 1.41 -0.07 -4.01 2.3 -0.15 1.18 0.18 0.01 1.19 0.18 0.01 21.9 3.4 0.75 -8.22 -7.22 -1.61 -0.16 28.24 65.0 23.0 25.63 17.26 10.73 -2.35 1.78 -8.97 -4.06 -3.22 -12.94 -30.39 -34.82 -54.53 -12.35 1.81 -7.74 -25.48 66.2
18.98 89.57 29.47 -146.58 3.46 -0.04 3.2 -31.14 -5.62 -0.0 16.26 -0.0 27.47 8.12 15.5 0.0 -2.76 -2.09 -0.0 41.42 0.0 -0.38 -12.68 2.62 -8.61 5.78 -0.78 -2.16 1.42 -0.11 -3.59 2.32 -0.21 1.11 0.19 0.05 1.12 0.19 0.05 20.68 3.29 1.52 -6.47 -7.37 -1.12 -2.0 26.47 61.33 23.44 23.0 16.63 10.51 -2.59 1.39 -7.88 -4.56 -2.98 -8.8 -30.17 -36.76 -52.49 -13.17 3.31 -8.21 -27.41 65.92
18.76 89.54 29.59 -146.48 3.48 -0.07 3.6 -31.12 -5.94 0.0 16.34 -0.0 27.45 8.21 15.5 -0.06 -2.82 -2.2 -0.0 41.54 -0.0 -0.32 -12.69 2.59 -7.65 5.77 -0.99 -1.92 1.42 -0.17 -3.2 2.31 -0.32 1.05 0.2 0.08 1.06 0.2 0.08 19.51 3.18 2.07 -4.82 -6.68 -1.66 -4.36 23.83 55.57 20.49 17.55 14.98 11.09 -3.77 0.79 -7.05 -4.74 -2.62 -3.89 -28.93 -39.3 -52.3 -13.33 2.45 -11.34 -29.06 65.54
18.59 89.56 29.78 -146.92 3.6 -0.25 3.65 -30.81 -5.82 0.0 15.35 0.0 28.02 8.65 15.81 0.25 -2.9 -2.23 0.0 41.51 0.0 -0.13 -12.69 2.5 -6.43 5.83 -1.45 -1.62 1.43 -0.3 -2.71 2.33 -0.52 0.97 0.2 0.14 0.98 0.2 0.14 18.14 2.87 2.97 -4.14 -6.21 -2.19 -7.56 22.01 50.35 17.35 10.03 14.62 12.08 -7.12 -0.68 -7.0 -5.24 -2.47 -2.03 -27.98 -41.55 -50.64 -12.3 2.28 -13.93 -31.01 65.67
18.31 89.59 29.9 -146.94 3.65 -0.4 3.79 -30.56 -5.96 0.0 14.96 0.0 28.2 8.43 16.22 0.53 -2.76 -2.21 0.0 41.27 0.0 -0.24 -12.7 2.72 -6.58 5.82 -1.51 -1.66 1.43 -0.31 -2.77 2.32 -0.54 1.0 0.19 0.14 1.0 0.19 0.14 18.53 2.65 2.94 -3.85 -5.8 -3.09 -9.78 20.71 47.65 11.48 6.41 11.77 13.11 -7.36 0.69 -7.45 -4.84 -2.46 -0.22 -28.5 -42.84 -47.08 -12.15 1.4 -16.3 -34.46 67.09
18.05 89.61 30.0 -147.25 3.5 -0.52 3.64 -30.26 -5.89 0.0 14.71 0.0 28.8 8.06 16.72 0.8 -2.4 -2.27 -0.0 41.03 -0.0 -0.18 -12.66 2.94 -6.43 5.79 -1.31 -1.62 1.42 -0.26 -2.71 2.32 -0.46 0.99 0.21 0.13 0.99 0.21 0.13 18.37 3.13 2.89 -4.87 -5.77 -3.21 -11.36 21.91 47.56 9.47 9.77 11.38 12.69 -7.53 0.71 -9.69 -3.97 -1.93 -2.34 -30.77 -43.09 -43.8 -12.03 1.01 -17.65 -34.77 69.35
17.79 89.61 30.18 -147.7 3.31 -0.4 3.84 -30.03 -6.14 -0.0 14.56 -0.0 29.22 7.94 16.76 1.03 -2.06 -2.65 0.0 40.8 0.0 -0.12 -12.58 3.08 -7.41 5.8 -1.1 -1.86 1.42 -0.2 -3.11 2.32 -0.36 1.04 0.22 0.09 1.04 0.22 0.09 19.32 3.52 2.27 -6.03 -6.63 -2.85 -9.0 22.97 47.31 9.7 13.48 14.87 12.53 -6.82 0.55 -11.4 -4.23 -2.39 -8.38 -32.42 -41.1 -44.92 -12.11 1.18 -17.16 -30.26 70.03
17.7 89.57 30.25 -148.7 3.13 -0.22 3.89 -30.2 -6.09 -0.0 14.91 -0.0 30.1 7.61 16.68 1.31 -1.77 -3.09 0.0 40.73 -0.0 0.21 -12.47 2.92 -8.49 5.61 -0.9 -2.13 1.38 -0.15 -3.54 2.25 -0.27 1.08 0.23 0.06 1.09 0.24 0.06 20.1 4.03 1.71 -6.46 -6.92 -2.97 -11.19 24.56 49.25 11.24 19.47 12.56 12.75 -6.01 0.58 -12.18 -4.55 -2.67 -16.87 -33.51 -37.29 -47.12 -12.97 1.96 -14.16 -24.42 69.98
17.75 89.51 30.38 -149.24 3.29 -0.19 4.36 -30.3 -6.05 0.0 14.5 0.0 30.18 8.49 15.98 1.55 -2.14 -3.21 0.0 41.09 0.0 0.3 -12.54 2.71 -9.06 5.28 -0.84 -2.28 1.3 -0.13 -3.77 2.11 -0.24 1.08 0.23 0.04 1.09 0.23 0.04 20.15 4.04 1.47 -6.29 -6.43 -3.61 -11.61 25.11 48.58 9.6 19.75 12.07 11.77 -6.47 2.17 -13.71 -4.96 -2.04 -22.8 -34.12 -33.65 -51.92 -13.48 3.16 -8.5 -18.32 69.14
17.86 89.5 30.51 -149.0 3.58 -0.36 4.28 -30.31 -5.89 -0.0 13.84 -0.0 30.16 9.07 15.78 1.53 -2.64 -2.95 -0.0 41.34 -0.0 0.32 -12.75 2.63 -9.04 5.04 -0.55 -2.27 1.24 -0.06 -3.76 2.03 -0.13 1.06 0.22 0.01 1.07 0.22 0.01 19.68 3.97 0.87 -6.39 -6.0 -3.97 -11.68 25.34 48.96 9.83 22.89 12.69 10.95 -6.89 2.02 -15.25 -5.5 -1.13 -27.58 -34.73 -29.82 -56.71 -13.34 4.97 -1.91 -13.11 67.71
18.08 89.53 30.49 -148.67 3.62 -0.59 3.77 -30.14 -5.49 -0.0 13.44 0.0 30.31 9.05 15.94 1.29 -2.86 -2.52 -0.0 41.54 0.0 0.29 -12.82 2.63 -8.32 4.86 -0.33 -2.09 1.2 -0.01 -3.46 1.97 -0.05 1.02 0.26 0.01 1.02 0.26 0.01 18.84 4.75 0.85 -6.03 -6.34 -3.39 -6.84 27.92 56.78 13.48 25.69 12.57 9.87 -5.88 0.57 -15.79 -6.13 -0.12 -30.7 -34.84 -26.1 -60.36 -13.64 6.47 4.01 -11.94 65.68
18.3 89.54 30.43 -147.75 3.63 -0.62 3.6 -30.24 -5.54 0.0 13.91 -0.0 29.8 8.9 15.59 0.95 -3.06 -2.16 -0.0 41.74 0.0 0.12 -12.88 2.74 -7.63 4.57 0.06 -1.91 1.13 0.07 -3.17 1.86 0.1 0.95 0.3 -0.02 0.96 0.3 -0.02 17.58 5.66 0.43 -7.09 -6.41 -2.12 -3.8 27.86 60.53 25.42 28.31 17.06 10.69 -1.89 -0.93 -15.59 -6.51 0.44 -31.22 -35.27 -24.78 -61.48 -13.79 7.56 5.49 -8.53 65.92
18.38 89.56 30.43 -147.71 3.48 -0.53 3.59 -30.09 -5.63 -0.0 13.93 -0.0 30.02 8.72 15.89 0.98 -2.9 -2.16 0.0 41.68 0.0 0.12 -12.77 2.72 -7.25 4.41 0.2 -1.82 1.09 0.1 -3.01 1.8 0.15 0.93 0.29 -0.06 0.94 0.29 -0.06 17.12 5.74 -0.3 -6.6 -5.92 -1.97 -4.13 26.66 59.32 37.96 20.12 22.01 14.87 0.55 -3.15 -14.38 -6.08 0.52 -28.6 -34.87 -24.79 -62.82 -14.4 7.26 4.8 -8.18 65.33
18.31 89.56 30.53 -147.43 3.41 -0.57 3.68 -29.95 -5.83 -0.0 13.91 -0.0 29.94 8.57 16.24 1.17 -2.93 -2.06 -0.0 41.81 0.0 0.01 -12.74 2.83 -7.5 4.48 0.11 -1.88 1.1 0.08 -3.11 1.83 0.12 0.94 0.25 -0.04 0.94 0.25 -0.04 17.21 4.85 -0.09 -5.65 -5.28 -2.31 -6.6 26.18 54.82 46.9 17.87 25.38 16.06 1.06 -4.25 -13.44 -5.67 0.37 -25.51 -34.54 -26.35 -62.82 -14.47 6.8 2.39 -9.12 65.76
